# xmcd
# 
# Track frame offsets:
#     150
#     14542
#     41398
#     65180
#     85755
#     104966
#     120777
#     134579
#     150822
#     175269
#     190916
#     208969
#     221865
#     244213
#     264196
#     278339
#     297180
#     317125
#     335614
# 
# Disc length: 4710
# 
# Revision: 1
# Processed by: cddbd v1.5.2PL0 Copyright (c) Steve Scherf et al.
# Submitted via: fre:ac v1.0.17
# 
DISCID=1d126413
DTITLE=Levon Helm - The Ties that bind
DYEAR=1998
DGENRE=Blues
TTITLE0=Milk Cow Boogie
TTITLE1=The Weight
TTITLE2=Atlantic City
TTITLE3=The tie that binds
TTITLE4=You got me
TTITLE5=Even a fool would let go
TTITLE6=Willie and the hand jive
TTITLE7=Lucretia
TTITLE8=Caves of Jericho
TTITLE9=Don't ya' tell Henry (live)
TTITLE10=Take me to the river
TTITLE11=Livin' in a dream
TTITLE12=Rock salt and nails
TTITLE13=Play something sweet (junkyard blues)
TTITLE14=Stand up
TTITLE15=Standing on the mountain top
TTITLE16=When I get my rewards
TTITLE17=Hurricane
TTITLE18=Watermelon time in Georgia
EXTD=Compilation of Levon's tracks
EXTT0=
EXTT1=
EXTT2=
EXTT3=
EXTT4=
EXTT5=
EXTT6=
EXTT7=
EXTT8=
EXTT9=
EXTT10=
EXTT11=
EXTT12=
EXTT13=
EXTT14=
EXTT15=
EXTT16=
EXTT17=
EXTT18=
PLAYORDER=
